/* XPM */
static char *_c2e6a7ac36c42b8d3dfc32b50b7739dV5pjkCQhsVFMzBYa[] = {
/* columns rows colors chars-per-pixel */
"64 64 116 2 ",
"   c #0F0A12",
".  c #130D14",
"X  c #150F19",
"o  c #171112",
"O  c #191213",
"+  c #17101B",
"@  c #2D1D0D",
"#  c #351F12",
"$  c #381F13",
"%  c #2E240D",
"&  c #31250E",
"*  c #342B0F",
"=  c #2E2511",
"-  c #2F2811",
";  c #342311",
":  c #392412",
">  c #362D10",
",  c #3A2D14",
"<  c #3B261B",
"1  c #373011",
"2  c #383011",
"3  c #3F3018",
"4  c #160B20",
"5  c #1A0D22",
"6  c #241C2B",
"7  c #281F2F",
"8  c #200B30",
"9  c #271A33",
"0  c #2A1C36",
"q  c #2D1D3A",
"w  c #311F3E",
"e  c #29212F",
"r  c #2B2233",
"t  c #2F2539",
"y  c #302637",
"u  c #31243B",
"i  c #34283D",
"p  c #412F1C",
"a  c #403017",
"s  c #413117",
"d  c #423517",
"f  c #413118",
"g  c #45311D",
"h  c #49371D",
"j  c #47381A",
"k  c #4A391B",
"l  c #493D19",
"z  c #4B3B1C",
"x  c #4C3B1F",
"c  c #4B3C1D",
"v  c #412921",
"b  c #422823",
"n  c #452B24",
"m  c #452B25",
"M  c #492D27",
"N  c #472929",
"B  c #492A2B",
"V  c #492D28",
"C  c #4D2E2B",
"Z  c #4B2B2C",
"A  c #4D2D2D",
"S  c #502F2E",
"D  c #453022",
"F  c #4B3721",
"G  c #4C3623",
"H  c #4B3226",
"J  c #4C3227",
"K  c #4B3424",
"L  c #4D3525",
"P  c #4B3821",
"I  c #4D3823",
"U  c #4D312A",
"Y  c #4F322C",
"T  c #50322D",
"R  c #4B401A",
"E  c #4C401A",
"W  c #2F1A41",
"Q  c #331C45",
"!  c #361E49",
"~  c #381E49",
"^  c #34065F",
"/  c #370E5D",
"(  c #380E5F",
")  c #342241",
"_  c #392547",
"`  c #3B234C",
"'  c #3C2450",
"]  c #3A0C64",
"[  c #3B066D",
"{  c #3C0A6B",
"}  c #3E0871",
"|  c #410F6C",
" . c #42106F",
".. c #440B75",
"X. c #44067C",
"o. c #46097E",
"O. c #490D7B",
"+. c #5C247F",
"@. c #480485",
"#. c #4B0B82",
"$. c #4F088B",
"%. c #5C1D85",
"&. c #5E1F89",
"*. c #611D8F",
"=. c #631D92",
"-. c #651A9A",
";. c #6A1D9F",
":. c #5C2381",
">. c #5F208A",
",. c #64238D",
"<. c #662194",
"1. c #682097",
"2. c #692299",
"3. c #721DAB",
"4. c #6F20A3",
"5. c #7021A5",
/* pixels */
"Z < ; B A M , > > * > 2 2 2 2 2 2 2 2 2 2 2 2 2 2 2 2 3 z l I Y x L A I d 2 2 2 2 2 2 2 2 2 2 2 2 2 2 2 > * * 1 > , A Z N = < Z ",
"< , , < n n ; * * % * 1 2 2 2 2 2 2 2 2 2 2 2 2 2 2 1 3 k l F U c F Y h d 2 2 2 2 2 2 2 2 2 2 2 2 2 2 2 * & & * & ; B b < , , < ",
"= , s ; < b % & & % & * > * * > 2 2 2 2 2 2 2 2 2 2 2 3 k l I U z F U h d 2 2 2 2 2 2 2 2 2 2 2 2 2 > * * & & & & ; n < ; s , ; ",
"N < ; : ; ; f ; ; s & & * % & * > > > > 2 2 2 2 2 2 2 , 2 k k x U L F 3 , 2 2 2 2 2 2 2 2 2 2 2 2 > * & % , 3 % > s ; : : ; < B ",
"Z b < : ; ; , ; ; , > ; & ; ; & * & & * 2 2 2 2 2 2 2 2 2 j h P P F H , 2 2 2 2 2 2 2 2 2 2 > 2 > * & & , , ; : ; ; : ; ; < n A ",
"A B n ; : : @ : : % , , & s , % & & % * * * * * > 2 2 2 2 z L U c F C , 2 2 2 2 2 2 2 2 1 * * * * & & ; 3 ; & : ; & : ; ; b n V ",
", ; ; s ; & $ & & $ & & : & & & % , 3 % & & % & > > > > 2 z K U x L A , 2 2 2 2 > * * > * & % & & % , 3 % : : @ # $ @ , f % > , ",
"> & - , ; ; $ ; ; : ; ; : & & * & ; , & & & ; & & > & > s F K G l z F 2 > > 1 1 * & & * & & , & & & ; ; : & & $ ; & : ; ; & * > ",
"> * & % : $ @ $ $ @ $ : , * * > * % % & % & f > % * % ; F Y L x l z F 3 , & * * & > * & % & , & & * & & : : & $ ; & : ; ; & * > ",
"* & & , ; & $ & & : & & > > > > > * * * * & & & & % , g U A K l E I T F , % & & % 3 , % & & % & * > * * > : : @ # $ % , s % % * ",
"* & & , , ; : & : : & & ; & * > 2 > > 2 > * % * * % , f H K F z l l I J D 3 % % & & & & * * * * 1 1 > > > & & : ; & , > & & * > ",
"1 * * % , 3 % : : > > ; : % & * > 2 2 2 2 > * > > * % > z x I Y F k l D p , & & * & & * 1 2 > 2 2 > * & ; & & : : & , ; & * > 2 ",
"2 2 * & & ; 3 ; & > > & & 3 > % * 2 2 2 2 2 2 2 2 > * 2 k l F A Y I l 2 > % * * > * * 1 2 2 2 2 * * % & : ; > , : : & & * > 2 2 ",
"2 2 1 * & & , > & * > & % , > & * 2 2 2 2 2 2 2 2 2 1 2 j z F U Y K z 2 > * > 2 2 2 2 2 2 2 2 1 * % , , % & > * & & s ; % * 2 2 ",
"2 2 2 1 * & % & * > > > * % & : ; > 1 2 2 2 2 2 2 2 2 > , n D h D b D , 2 2 2 2 2 2 2 2 2 2 2 > * & > , & * > * & & , * & * 2 2 ",
"2 2 2 2 > * & & & * 1 2 * * * ; % & > > 2 2 2 > > > > - o . . . o . . O > > > > 1 2 2 2 2 2 > * ; : & % * > > > * & % & * > 2 2 ",
"2 2 2 2 2 * & & & & * 2 2 > > * & ; , * * > > - O . . . . . . . . . . . . . . O - > 2 > * > , & % ; * * > 2 > * & % & * > 2 2 2 ",
"2 2 2 2 1 * % , , % * > 2 2 2 > , b n % & > - o     . . X 6 r r r 7 6 X . .     o - > * & ; b ; & > 2 2 2 1 * % ; , & & > 2 2 2 ",
"2 2 2 2 2 * & > > & * 2 2 2 2 2 > ; : , = o . . . X 6 r 7 y ) ) ) u y r 7 r + . . . o % & : n , > > 2 2 2 1 * % , 3 % & > 2 2 2 ",
"2 2 2 2 2 1 * & % & * > 2 2 2 2 * & & > o     . 6 r y ) u ! 1.4.4.1.` ) u y r 6 .     . > , % * > 2 2 2 2 2 * * & % * * > 2 2 2 ",
"2 2 2 2 2 2 > * & % & * > 2 2 2 1 * % .     . 6 y ) ` 1.;.#.#.o.o.#.;.4.1.` u r 6 .     o = & * 2 2 2 2 2 > * % & & * 2 2 2 2 2 ",
"2 2 2 2 2 2 * & * , & & * 2 2 2 2 > o     . 7 _ ` 1.;.#.#.=.Q q q Q ..o.#.;.=.Q r 6 .   . o > > 2 2 2 2 > * & & & & * 2 2 2 2 2 ",
"2 2 2 2 2 2 * & > 3 & & * 2 2 2 > - .   X 6 ` <.1.#...Q ) ) ) _ q t q 0 Q O.o...q y 0 X   . - > 2 2 2 2 * % & f ; % * 2 2 2 2 2 ",
"2 2 2 2 2 2 1 * & % & * > 2 2 > - o . X r Q { ! _ w u r u ` 1.;...Q q r y ) ! &.Q _ +.0 . . o - > 2 2 2 > * & > & & * 2 2 2 2 2 ",
"2 2 2 2 2 2 2 > * & % & * 2 2 > O   . 6 _ 1.o.q r y ) ` 1.;.#.o.o.-.O.W r i y Q { ) u r 6 .   O > 2 2 2 > * & % & * > 2 2 2 2 2 ",
"2 2 2 2 2 2 2 > * & % & * > 2 > .   X 7 ` ;...u r Q 1.;.#...W q Q O.-.O.W y y q { q y u 7 X   . > 2 2 > * % % & > > 2 2 2 2 2 2 ",
"2 2 2 2 2 2 2 > & % 3 , % * 2 > . . 6 _ 2.#.Q r Q } o...Q u r y y q ` ;...q r q ..W q ] u 6 . . > 2 > > % , , % & > 2 2 2 2 1 , ",
"d d d , 2 2 2 > , , D p > > 2 , . + r ` ;...) ` =...W q y u q q y y u 1.#.Q r ) ;...0 0 r r . . - > 2 2 > f g ; > > 2 2 2 3 3 3 ",
"I h h 3 , , , 2 3 F J D 2 2 , O . r _ 2.#.Q _ 2.#.Q y y ` =...] W y r ` =...W _ 1.o.W 9 0 7 X . o , j k z H U F s 2 2 2 2 k k z ",
"S Y U F H C A F F T I l l z D . . 7 ) 4.o.q _ ;...q r ` =.O.W W ] q r y ! o.} q Q o.} q / 0 6 . . n z l x K A T F z z j k l l l ",
"L F F L F F L z z I l k I K b . . r ) 4.#.) q ..Q y ` =.O.Q u y Q ] ) y ) ;.o.) ) ;.o.q 0 0 6 . . D F F I F K L F G L h z I F I ",
"x c z U F c x l l R l F Y Y D o . 7 ` ;...q Q ] q _ 2.#.W u :.! ( q r y ) ;.o.q ) 4.#.) q ] 9 . . h U A Y z l x G U U P x U U Y ",
"Y U U x P U U G x l z Y A U h . . q 1.#.Q _ ,.! y _ ;.o.q y Q ] q r y y ! o.} q ` ;.O.) q { 9 . o D Y Y F l R l l x c F U z c x ",
"I F I z z L G F L K F I F F D . . ~ ;...q ) 2.` y q X.X.Q r t q y r y ` =.X.W _ 2.#.Q y q ] 9 . . b K I k l I z z L F F L F F L ",
"l l l k j z h F Y A H x l z n . 5 %.#.Q y ) <.) y q [ @.=.` r y y r ` 2.$.} q _ 5.o.q y y 0 6 . . D z l l I T F F A C H F U Y S ",
"z k k 2 2 2 2 s F U H z k j , O . 8 [ q y q | W r r q } $.=.Q ) ) Q 2.3...W y ) ;...q y q 7 X . O , 2 2 D J F 3 2 , , , 3 h h I ",
"3 3 3 1 2 2 > > ; g f > 2 2 > - . 4 [ q r r q ] q r r W } X.o.;.;.o.o...W r y q ..W r 0 / 9 . . , 2 > > p D , , > 2 2 2 , d d d ",
", > , 2 2 2 * & % , , % > > 2 > . X ^ 0 y y q ..W r y y q W } o.o.} W q r r y Q ] q y q 0 6 . . > 2 * % , 3 % & > 2 2 2 2 2 2 2 ",
"2 2 2 2 2 2 > * & % % * > 2 2 > .   4 7 r 0 w *...Q ) y r r q ) q q r e r u ` >.Q y _ ( 9 X   . > 2 > * & % & * > 2 2 2 2 2 2 2 ",
"2 2 2 2 2 > * & % & * > 2 2 2 > O   . 6 0 / q Q ..1.,.Q q ) ) _ ) ) q 0 Q ,.1.O.Q q y 0 6 .   O > 2 2 * & % & * > 2 2 2 2 2 2 2 ",
"2 2 2 2 2 * & & > & * > 2 2 2 1 - o . . 6 0 r 0 q u Q ] ..1.4.5.;.o.[ { { Q Q ! &.{ 0 6 . . o - > 2 2 > * & % & * > 2 2 2 2 2 2 ",
"2 2 2 2 2 * % ; f & % * 2 2 2 2 > - .   . 6 )  .! r 7 q q ! O.#.o.} W q u r Q { Q 0 6 .   . - > 2 2 2 * & & 3 > & * 2 2 2 2 2 2 ",
"2 2 2 2 2 * & & & & * > 2 2 2 2 1 > o     X ) *.| 0 r _ r y ) ) q q r r 0 u &...u 6 .     o > 2 2 2 2 * & & , * & * 2 2 2 2 2 2 ",
"2 2 2 2 2 * & & % * > 2 2 2 2 2 * & = o     X 0 q r u +.u u i i y r 0 0 / q u ) 7 .     . % * > 2 2 2 > * & % & * > 2 2 2 2 2 2 ",
"2 2 2 > * * % & * * 2 2 2 2 2 > * % , > .     . 6 7 r u u :.' ) q q / 0 0 7 6 6 .     o > & & * 2 2 2 2 1 * & % & * > 2 2 2 2 2 ",
"2 2 2 > & % 3 , % * 1 2 2 2 > > , n : & % o . . . X 6 6 7 Q { { { ] q 7 r 6 X . . . o - , : ; > 2 2 2 2 2 * & > > & * 2 2 2 2 2 ",
"2 2 2 > & & , ; % * > 2 2 2 > & ; b ; & * > - o     . . X 6 9 9 9 q 6 X . .     o - > & % n b , > 2 2 2 1 * % , , % * 1 2 2 2 2 ",
"2 2 2 > * & % & * > 2 > * * ; % & , > * > 2 > - o . . . . . . . . . . . . . . O - > 1 > * , ; & * 1 1 2 2 * & & & & * 2 2 2 2 2 ",
"2 2 > * & % & * > 1 > * % & : ; * > 2 2 2 2 2 > > > > > O . . o . . . o - > > > > 2 2 2 > > & % ; * * * 2 > * & & & * 1 2 2 2 2 ",
"2 2 * & ; , & & * > * & , > & * > 2 2 2 2 2 2 2 2 2 2 2 , D b D h D n , > 2 2 2 2 2 2 2 2 > > > : & % * > > > * & % & * 1 2 2 2 ",
"2 2 * % ; s & & * > & % , , % & > 2 2 2 2 2 2 2 2 > * > 2 z K Y U F z j 2 1 2 2 2 2 2 2 2 2 2 * & > , & & > * & > , & & * 1 2 2 ",
"2 2 > * & & : : , > ; : & % * * 2 2 2 2 > * * > * * % > 2 l I Y A F l k 2 * > 2 2 2 2 2 2 2 2 * % > , & & > > & ; 3 ; & & * 2 2 ",
"2 > * & ; , & ; : & & ; & * > 2 2 > 2 1 * & & * & & , p D l k F Y I x z > % * > > * > 2 2 2 2 > * & % : ; > , : : % , , % * * > ",
"> * & & , , & ; : & & > > > 1 1 * * * * & & & & % % 3 D J I l l z F K H f , % * * % * > 2 1 1 2 > * & ; & & : ; & : ; > , & & * ",
"* % % s , % $ # @ : : > * * > * & % & & % , 3 % & & % , F T I R l K A U g , % & & & & * * * * > > > > > & & : & & $ & ; 3 & & * ",
"> * & ; ; : & ; : & ; : & & * & & , & % & * > & * * & , 3 F z l x L Y F ; % & % > f & % * % % * > * * , : : @ : : @ : : % * * > ",
"> * & ; ; : & ; $ & & : ; ; & & & , & & * & & * > > > > 2 F z l G F F s > & > & & ; & & % , ; & * & & : ; ; $ ; ; $ ; ; , & & > ",
", ; % f , @ $ # @ $ : % 3 , % & & % & * > * * > 2 2 2 2 , A L x U F h 2 > > > > & % * & % 3 , % & & & : & & $ & & $ & ; s ; ; , ",
"V n b ; ; : & ; $ & ; , ; & & * * * * 1 2 2 2 2 2 2 2 2 , C F c U L z 2 2 2 2 > * * * * * % & & % , s & , , % : : @ : : ; n B A ",
"A n < ; ; : ; ; : ; ; , & & * 1 2 1 2 2 2 2 2 2 2 2 2 2 , H F P P h j 2 2 2 2 2 2 2 2 2 * & & * & ; ; & ; , , ; ; , : ; : < b A ",
"B < ; : : ; , > % , , % & * 1 2 2 2 2 2 2 2 2 2 2 2 2 , 3 F L U x z k 2 , 2 2 2 2 2 2 2 > > > > * & % * & & s ; ; f ; ; : ; < N ",
"; , s ; < n ; % & & & * * 1 2 2 2 2 2 2 2 2 2 2 2 2 2 d h U F z U I l k 3 2 2 2 2 2 2 2 2 2 2 2 > * * > * & % & & % b < ; s , = ",
"< , , < b B ; & * & & * 2 2 2 2 2 2 2 2 2 2 2 2 2 2 2 d h Y F c U F l k 3 1 2 2 2 2 2 2 2 2 2 2 2 2 2 2 > * - * * ; n n < , , < ",
"Z < = N A A , > > * * > 2 2 2 2 2 2 2 2 2 2 2 2 2 2 2 d I A L x Y I l z 3 2 2 2 2 2 2 2 2 2 2 2 2 2 2 2 2 > * > > , V A B ; < Z "
};
