/* XPM */
static char *_d86ffc8a94c4195c024737b405b738axPgCons7iw60VkPD[] = {
/* columns rows colors chars-per-pixel */
"64 64 93 2 ",
"   c #040304",
".  c #090605",
"X  c #0A0805",
"o  c #060209",
"O  c #09030D",
"+  c #0D0A0A",
"@  c #110D0B",
"#  c #15110E",
"$  c #0E0312",
"%  c #0F0B14",
"&  c #110417",
"*  c #110D17",
"=  c #13001D",
"-  c #140D1A",
";  c #15101B",
":  c #19151F",
">  c #241C0A",
",  c #2C1C0E",
"<  c #351F12",
"1  c #2D240D",
"2  c #2F280D",
"3  c #31240E",
"4  c #322B0F",
"5  c #2F2111",
"6  c #342311",
"7  c #362D10",
"8  c #3A2D14",
"9  c #352219",
"0  c #3A251B",
"q  c #383011",
"w  c #160021",
"e  c #190025",
"r  c #180822",
"t  c #1E002D",
"y  c #1B1721",
"u  c #1F0030",
"i  c #22012E",
"p  c #211C25",
"a  c #261D29",
"s  c #230033",
"d  c #280135",
"f  c #260038",
"g  c #2A013A",
"h  c #2A003E",
"j  c #2F0A3F",
"k  c #28202B",
"l  c #29202C",
"z  c #3D2621",
"x  c #2F2533",
"c  c #412E1E",
"v  c #403017",
"b  c #413117",
"n  c #403516",
"m  c #403018",
"M  c #413519",
"N  c #41301D",
"B  c #4B3E1A",
"V  c #4B3A1C",
"C  c #4C3D1D",
"Z  c #402625",
"A  c #422823",
"S  c #452B24",
"D  c #492D27",
"F  c #472928",
"G  c #492A2B",
"H  c #492D28",
"J  c #4B2B2C",
"K  c #4D2D2D",
"L  c #502F2E",
"P  c #4C3624",
"I  c #4C3822",
"U  c #4F322C",
"Y  c #2E0043",
"T  c #2F0A40",
"R  c #310046",
"E  c #300B41",
"W  c #33004A",
"Q  c #34004C",
"!  c #350B48",
"~  c #370050",
"^  c #390052",
"/  c #3C0C50",
"(  c #3E3C41",
")  c #434246",
"_  c #49484B",
"`  c #4F4E50",
"'  c #504F51",
"]  c #515052",
"[  c #6500A3",
"{  c #6500A4",
"}  c #7100B7",
"|  c #7F00CD",
" . c #8100D1",
/* pixels */
"J 0 6 G K D 8 7 7 4 7 q q q q q q q q q q q q q q q q q V B I U C P K I n q q q q q q q q q q q q q q q 7 4 4 7 7 8 K K F 5 0 J ",
"0 8 8 0 S S 6 4 4 3 4 q q q q q q q q q q q q q q q 7 7 m n N S M c S m 8 8 q q q q q q q q q q q q q q 4 4 4 4 4 6 G A 0 8 8 0 ",
"5 8 b 6 0 A 1 4 4 1 4 4 7 4 4 7 q q q q q q q q 7 4 1 @ + + + @ + + @ + @ 1 4 7 q q q q q q q q q q 7 4 4 3 3 4 3 6 S 0 6 b 8 6 ",
"F 0 6 6 6 6 m 6 6 b 3 3 4 1 3 4 4 4 4 4 4 4 4 4 1 @ @ a l l k p p k l l a @ @ 1 4 4 4 4 4 4 4 7 q 7 4 4 1 8 8 1 7 b 6 6 6 6 0 G ",
"K A 0 6 6 6 8 6 6 8 7 6 4 6 6 4 1 @ + + + + X X @ a l x x x a r r a x x x l a @ + + + + + + @ 1 7 4 4 4 8 8 6 6 6 6 6 6 6 0 S K ",
"K G S 6 6 6 , 6 6 1 8 8 1 8 6 > # a l l l l k l l x x x x a s { { s a x x x x l l l l l l l a # 1 1 1 6 q 6 3 < 6 3 6 6 6 A S H ",
"8 6 6 b 6 3 < 3 3 < , , , @ + @ a x x l l l l l l l x x a s { | | { s a x x l l l l l l l x x a @ X @ 6 , 5 < , < < 1 8 m 1 6 8 ",
"7 4 4 8 6 6 < 6 3 , @ + @ a l l x x a * $ $ $ $ $ * a l r { |  . .| { r l a * $ $ $ $ $ * a x x l l a @ + @ , < 6 3 6 6 6 4 4 7 ",
"7 4 4 1 6 < , , , @ a l l x x l l a - E ! ! ! ! ! E - p = [ |  . .| [ = p - E ! ! ! ! ! E - a l l x x l l a @ , , 3 6 6 6 4 4 7 ",
"4 4 3 8 6 3 , @ @ a x x x x a * $ & E / / / / / / / E O o t [ } } { u o O E / / / / / / / E & $ * a x x x x a + @ , 1 8 b 1 1 4 ",
"4 4 3 8 6 , @ a l x x x x a - E ! ! / / / / ! ! ! ! T $ $ = w e w w t e $ j ! ! ! ! / / / / ! ! E - a x x x x l a @ 6 6 3 4 4 7 ",
"7 4 4 1 5 # a x x x x x l * E / / / / / / E $ $ $ $ = h t R W R d i w = = $ $ $ $ $ E / / / / / / E * l x x x x x a @ 1 3 4 7 q ",
"q q 4 1 @ a x x x x x x l * E / / ! ! ! E $ O g Y W W ^ Q ^ Q W g d w = e Y W W Y $ & E ! ! ! / / E * l x x x x x l X X 1 7 q q ",
"q q 7 4 + l x x x x x x x a & T E & O O $ = = w e W Q Q ~ W e e Y R d i d Q Q Q W i t $ $ $ & E T & a x x x x x x x a X 1 4 q q ",
"q q q 4 X p l l l x x x x l . O $ e = = h s t = = s s d g d = = w w = w d g d e w = w i i i e $ O . l x x x x l l l p X 1 4 q q ",
"q q 7 1 . . O O + a x x x a O e e t = w Y s t = = s s s d d w = = = = w d d d = = = w d d d s t e O a x x x a + O O . . 1 4 q q ",
"q 7 1 X * * * * * + a x l + $ = = = = = t w = = w W W s d d d i = = i i e d d = = i d W g g Q W e $ + l x a + * * * * * X 1 7 q ",
"q 4 X   * ; y y - * + a p . = = = = = = t = = w e W W s d d d d = = i i w d d w w d g W h h Q W e = . p a + * - y y ; *   X 4 q ",
"q 4 . % - p ) ) p - * O . o e t = = = w Y w w R W f s e d d d d = = = = = t s t t d d g Q Q h d i e o . O * - p ) ) p - % . 4 q ",
"q 4 X * y ) ' ' ) y - * % o e t = = = w R w w R W s t w d d g d w = = = w t t s s d d g Q Q g d d t o % * - y ) ' ' ) y * X 4 q ",
"q 4 X * y _ ] ] _ p ; - * O = w = = = e Y e w e e d d e t s W W s t i i t w e d d e e Y g d s s Y Y O % - ; p _ ] ] _ y * X 4 q ",
"q 4 X * y _ ] ] ' ) y * O h s t t t t t s d d t t d d d s s s d d d w w t d d s s t t s s t w = w w $ o * y ) ' ] ] _ y * X 4 q ",
"q 4 X * y _ ] ] ] _ y * O h s s s u t t s d d s s d d d s s s s d d w w t d d s s s s u s t w = = = = o * y _ ] ] ] _ y * X 4 q ",
"q 4 X * y _ ] ] ] _ y * o w t s s t w w t d d d d d d d d d s s s s d d s d d d d s s s d d d d d i = o * y _ ] ] ] _ y * X 4 q ",
"q 4 X * y _ ] ] ] _ y * o = s s s t w w s d d g g d d g g g d s s s d d i d g g g s s s d d d d d d =   * y _ ] ] ] _ y * X 4 q ",
"q 4 X * y _ ] ] ] _ y * o = W W s u t s R s d Q W s d Q ^ ~ Q Q s s d d e W ^ ^ Q s s d s t w w d d = o * y _ ] ] ] _ y * X 4 q ",
"q 4 X * y _ ] ] ] _ y * o w R W s t s f W s s Q Q s s Q ^ ^ ^ Q s s d d e W ~ ^ W s t d t t e e d d = o * y _ ] ] ] _ y * X 4 8 ",
"n 8 X * y _ ] ] ] _ y * o e e e = w Y R f w e Q Q s d Q h g Q W s s d d d g g g d e e t e e Y Y e e g O * y _ ] ] ] _ y * X 7 q ",
"I m X * y _ ] ] ] _ y * o = i i = = w e Y w w Q ~ g g W d s s s u t w w i d d s s W W s d d e e t i d o * y _ ] ] ] _ y * X m V ",
"L S + * y _ ] ] ] _ y * o = d d w = = w Y e e W Q g g W d s s s s t w w t d d d f Q W s d d w w s d d o * y _ ] ] ] _ y * X n B ",
"P c X * y _ ] ] ] _ y *   = d d d i = = e d d g d s s d d d d d d d t t s s d W Q f s w t u t s W Q R O * y _ ] ] ] _ y * X N I ",
"C M X * y _ ] ] ] _ y * o = i d d d e w w i d d d s u d d d d d g g s s s s s W W s t e t u t s W Q Y O * y _ ] ] ] _ y * + S U ",
"U S + * y _ ] ] ] _ y * o = = = = e R W d w = = w t t w = w d g Q Q s s d s s s s s s d s t w w s s w o * y _ ] ] ] _ y * X M C ",
"I N X * y _ ] ] ] _ y * o = = = = w Q ^ d w = = w t t = = w d g W W s t d s s s s s d d s t = = t t = o * y _ ] ] ] _ y * X c P ",
"B n X * y _ ] ] ] _ y * o = = = = w Q ^ g d d d d s t w t t d d e w = w t u s W Q Q Q Q s t = = d d i o * y _ ] ] ] _ y * + S L ",
"V m X * y _ ] ] ] _ y * o = = = = e W Q d d d d d s t w t s g d = = = w t u s W Q Q Q Q f s = = d d i o * y _ ] ] ] _ y * X m I ",
"q 7 X * y _ ] ] ] _ y * o f e e d d d d e w w t s s u t s f R Y w = i d s s u s d f f h R Y w = i d d o * y _ ] ] ] _ y * X 8 n ",
"8 4 X * y _ ] ] ] _ y * o e R Q Q W e e Y w = t s d d s W W e w = = t s s s s d g Q Q W e w = = = e Y O * y _ ] ] ] _ y * X 4 q ",
"q 4 X * y _ ] ] ] _ y * o e R Q ^ Q e e Y e w t s d d s Q Q w = = w t t s s s d g Q Q R e = w w w e h O * y _ ] ] ] _ y * X 4 q ",
"q 4 X * y _ ] ] ] _ y * O h e e Q Q s t s d d u s s s s Q Q w = t t w w d d d s s s s e d d W Q Q R e o * y _ ] ] ] _ y * X 4 q ",
"q 4 X * y _ ] ] ] _ y * O h e e W Q s u s d d s s s s s W W w = t t e e d d d d s t t e d g ^ ^ ^ Q e o * y _ ] ] ] _ y * X 4 q ",
"q 4 X * y _ ] ] ] _ y * o e R W g g s s s d d s s s s s s s = = d d W W s s s W W e w i d g ^ ^ ^ ^ Y O * y _ ] ] ] _ y * X 4 q ",
"q 4 X * y _ ] ] ] _ y * o = W W d d s s s d d s s s s s s t w w d g Q Q f s f Q W e w i d d Q ^ ^ ^ W O * y _ ] ] ] _ y * X 4 q ",
"q 4 X * y _ ] ] ] _ y * o = s s e e i s t e e d g d f Y s t t t d d f h W W W h f t e w w e R Q Q Q Y O * y _ ] ] ] _ y * X 4 q ",
"q 4 X * y _ ] ] ] _ y * o e u s d d d d s t s W ~ Q Q g w w t s s d W Q f s f Q W e = = i d e w w w = o * y _ ] ] ] _ y * X 4 q ",
"q 4 X * y _ ] ] ] _ y * o t s d d d g d s s d Q ~ Q Q d e e s s s s W W s s d W W e = w d d e w = = = o * y _ ] ] ] _ y * X 4 q ",
"q 4 X * y _ ] ] ] _ y * O R Q W s s Q W e d d g g s s s W Q Q W s u s s s d d s s t t t s s W W s t = o * y _ ] ] ] _ y * X 4 q ",
"q 4 X * y _ ] ] ] _ y * O W ~ Q f f Q W e d d d d t t s W Q Q Q s u s s s d d s s s s s s d W W s t = o * y _ ] ] ] _ y * X 4 q ",
"q 4 X * y _ ] ] ] _ y * O R f f Q Q g g d d d d d w w i e e d g s s d g Y e w t s W W s d d s s s t = o * y _ ] ] ] _ y * X 4 q ",
"q 4 X * y _ ] ] ] _ y * O Y s s W Q g g g d d d d w w i e e d d i i d g Y w = t s Q Q d g g s s s t =   * y _ ] ] ] _ y * X 4 q ",
"q 4 X * y _ ] ] ] _ y * O d e w s f W W W f s i t t t s R W Q W e e R R e = = t s W W f Q Q s t s s = o * y _ ] ] ] _ y * X 4 q ",
"q 4 X * y _ ] ] ] _ y * O Y s t u s s d g Q W e = = = w d h ^ Q s i d d = = = t s s s d ~ Q e e W W t o * y _ ] ] ] _ y * X 4 q ",
"q 4 X * y _ ] ] ] _ y * O R s s s s s d g ~ Q w = w w w i d Q Q s s d d w = w t u t t s W W e e R W t o * y _ ] ] ] _ y * . 2 7 ",
"7 1 . * y _ ] ] ] _ y * O R s s s s Q Q f Q Q w w R W d w e Q Q g d d d t t t u t w w t s s u t e e e o * y _ ] ] ] _ y * . 1 4 ",
"4 1   * y _ ] ] ] _ y * O h s t s d Q Q f Q Q e e W Q g w e Q Q d d d d s s s s t e e t s u t t w w e o * y _ ] ] ] _ y * . 1 4 ",
"7 1 . * y ) ' ] ' ) y * o = = w d d g g g ~ ^ Q W h h W d d Q Q e = = w d s s d d W W s s t w w t t = o * y ) ' ] ' ) y * . 2 7 ",
"7 1 . * ; p ) ` ) p ; * o = = w d d g g d W Q Q W d d R d d W R w = w e d d d d d W W f s s e e t t = o * ; p ) ` ) y ; * . 1 7 ",
"8 1   % - ; p ( p ; - % o i d d d d R Y t s s f d e e w = = w w w e W Q Q Q W s s e t W Q Q Q R e w e o % - ; y ( p ; - % . 1 8 ",
"H z . o % - ; : ; - % o o R ^ Q g d e e s s s W Q Q R w = = = w R Q ^ ^ ^ ^ ~ s u t s Q ^ ^ ^ Q s t e o o % - ; : ; - % o . Z K ",
"K z .   o % * * * % o   o Y W R d i = = i t t R W W Y = = = = = Y W W W W W R t t t t R W W W R t t e     o % * * * % o     0 K ",
"G 9                       o o o o o     o o o o o o o           o o o o o o o o o o o o o o o o o o                         9 S ",
"6 6 +     .                                           . . . . . . . . .                                             . .   + 6 5 ",
"0 8 6 9 0 Z 1 1 2 1 1 2 4 4 4 4 4 4 4 4 4 4 4 4 4 4 4 8 m S c M S N n m 7 4 4 4 4 4 4 4 4 4 4 4 4 4 4 4 4 1 1 1 2 1 z z 9 6 8 0 ",
"J 0 5 F K K 8 7 7 4 4 4 q q q q q q q q q q q q q q q n I K P C U I B V q q q q q q q q q q q q q q q q q 7 4 7 7 8 H K G 6 0 J "
};
