/* XPM */
static char *_077c6df22e34530c3f0ecc057303059C1KVrujhtA9tkzzJ[] = {
/* columns rows colors chars-per-pixel */
"64 64 63 1 ",
"  c #2D1D0D",
". c #351F12",
"X c #381F13",
"o c #2E240D",
"O c #31250E",
"+ c #342B0F",
"@ c #2F2011",
"# c #342311",
"$ c #392413",
"% c #362D10",
"& c #3A2D13",
"* c #3B261B",
"= c #3D2D18",
"- c #373011",
"; c #393011",
": c #3F3018",
"> c #412517",
", c #422D17",
"< c #412718",
"1 c #432D1A",
"2 c #413117",
"3 c #403416",
"4 c #423517",
"5 c #403018",
"6 c #423219",
"7 c #45311D",
"8 c #49361D",
"9 c #48371D",
"0 c #49371D",
"q c #47381A",
"w c #4A391B",
"e c #493D19",
"r c #4B3A1C",
"t c #4C3B1F",
"y c #4B3C1D",
"u c #412921",
"i c #422823",
"p c #442B24",
"a c #452B24",
"s c #492D27",
"d c #472928",
"f c #492A2B",
"g c #492D28",
"h c #4D2E2B",
"j c #4B2B2C",
"k c #4C2C2C",
"l c #4D2D2C",
"z c #502F2E",
"x c #463120",
"c c #4A3721",
"v c #4C3623",
"b c #4B3226",
"n c #4C3227",
"m c #4B3424",
"M c #4D3524",
"N c #4B3821",
"B c #4C3822",
"V c #4E3329",
"C c #4D312A",
"Z c #4F322C",
"A c #50312E",
"S c #4B401A",
"D c #4C401A",
/* pixels */
"j*#fls&%%+%;;;;;;;;;;;;;;;;:reBZtMlB4;;;;;;;;;;;;;;;%++-%&lld@*j",
"*&&*aa#++o+-;;;;;;;;;;;;;;-:wecCycZ04;;;;;;;;;;;;;;;+OO+O#fi*=&*",
"@=2#*ioOOoO+%++%;;;;;;;;;;;:weBCrcC04;;;;;;;;;;;;;%++OOOo#a*#2&#",
"d*#$##5##2OO+oO+%%%%;;;;;;;&;wwtCMc:&;;;;;;;;;;;;%+Oo&:o%,#$$#*f",
"li*$##&##&%#O##O+OO+;;;;;;;;;q0NNcb&;;;;;;;;;;%;%+OO&&#$##$##*al",
"lfa#$$ $$o=&O2&oOOo+++++%;;;;rMCych&;;;;;;;;%++++OO#:#O$#O$##iag",
"&##2#OXOOXOO$OOOo&:oOOoO%%%%;rmCtMl=;;;;%++%+OoOOo=:o$X .X &5o%&",
"%OO&##X##$##$OO+O#&OOO#OO%O%2cmverc;%%--+OO+OO&OOO##$OOX#O$##O+%",
"%+Oo$X XX X$&++%+ooOoO5%oOo#cZMterc:&O++O%+OoO&OO+OO$$OX#O$##O+%",
"+OO=#OXOO$OO%%%%%++++OOOOo=7ClmeDBAc=oOOo:&oOOoO+%++%$$ .Xo&2oo+",
"+OO&&#$O#$OO#O+%;%%;%+o++o&5bmcreeBnx:ooOOOO++++--%%%OO$#O=%OO+%",
"-++o&:o$$%%#$oO+%;;;;%+%%+o%rtBZcwex,=OO+OO+-;%;;%+O#OO$$O&#O+%;",
";;+OO#:#O%%OO:%o+;;;;;;;;%+;weclZBe;%o++%++-;;;;++oO$#%&$$oO+%;;",
";;-+OO=%O+%Oo=%O+;;;;;;;;;-;qrcCZmr;%+%;;;;;;;;-+o==oO%+OO2#o+;;",
";;;-+OoO+%%%+oO$#%-;;;;;;;;%:CMtMcM5;;;;;;;;;;;%+O%&O+%+OO&+O+;;",
";;;;%+OOO+%;+++#oO%%;;;;;;;;&0cMyvC04;;;;;;;;;%+#$Oo+%%%+OoO+%;;",
";;;;;+OOOO+;;%%+O#&++%;;;;;;;q0Meee;&%;;;;;%+%&Oo#++%;%+OoO+%;;;",
";;;;-+o==o+%;;;%&iaoO+-;;;;;;wtteew;;;;;;;;+O#i#O%;;;-+o#&OO%;;;",
";;;;;+O%%O+;;;;;%#$=#O+;;;;;;qrMeer:&%;;;%++O$a&%%;;;-+o&:oO%;;;",
";;;;;-+OoO+%;;;;+OO:#O+;;;;;:rcMeetr4;;;;%Oo==o+%;;;;;++Oo++%;;;",
";;;;;;%+OoO+%;;;-++o$$%%%;;:0CMte0M04;;;&%#$##O+;;;;;%+oOO+;;;;;",
";;;;;;+O+&OO+;;;;;+O##o+%%-:wrcvrcC0:;;;++#$OO+-;;;;%+OOOO+;;;;;",
";;;;;;+O%:OO+;;;;;-%%+o+%+%;qerCAMr:;-+%%oo%++-;;;;;+oO5#o+;;;;;",
";;;;;;-+OoO+%;;;;;;;&+%$$oO%;wttC7:;-+OO$++%;;;;;;;;%+O%OO+;;;;;",
";;;;;;;%+OoO+;;;;;;;;;%O#&OO;qeec7:&+O##$#%%;;;;;;;;%+OoO+%;;;;;",
";;;;;;;%+OoO+%;;;;;;;;+O#5##;0wSerr;Oo5&o+%;;;;;;;;%+ooO%%;;;;;;",
";;;;;;;%Oo:=o+;;%;%;&;%+Ooi1:bvw,ab==i#OO%&;;;;;;;%%o&=oO%;;;;-&",
"444&;;;%&=x1%%;4&;&44:&%+O=540q,$1c551#O+;::;;;;;%;;%57#%%;;;:::",
"B00:&&=;:cnx;;50;;:r00:&&;=5wq5<>5ww4=&&;qwr:;;;&:qwrbCc2;;;;wwr",
"zZCcbhlccABeerMCewrtMCr::rbmw,100,,w0b0qwerCwqwq0CretmlZcrrqweee",
"MccMccMrrBewBmcveeee0cM77ra15,,11,155vwwtrcMcrt0cMccBcmMcvM0rBcB",
"tyrCcyteeSecZZMyeeeeeNACce,$>01>>10>,weetCvtMMtMMtClZretvCCNtCCZ",
"ZCCtNCCvterZlCtMMtMMtvCteew,>01>>10>$,ecCANeeeeeyMZZceSeetycCryt",
"BcBrrMvcMmcBccMc0trcMcrtwwv551,11,,51ar77Mc0eeeevcmBweBrrMccMccM",
"eeewqr0cZlbterC0qwqwCrewq0b0w,,001,wmbr::rCMtrweCMreeBAcclhbcCZz",
"rww;;;;2cCbrwq:&;;;:0wq;&&=4ww5>>5qw4:;;&:00r:;;05;;xnc:;=&&:00B",
":::-;;%%#75%;;%;;;;;::;%O#154c1$,5045=O+%&:44&;&4;%%1x=&%;;;&444",
"&%&;;;+Oo=&o%%;;;;;;;&%OO#i=:ba,wvb=1ioO+%;;;%;%;;+o=:oO%;;;;;;;",
";;;;;;%+Ooo+%;;;;;;;;%+o&5oO;rreew0&##5#O+;;;;;;;;%+OoO+%;;;;;;;",
";;;;;%+OoO+%;;;;;;;;%%%$##O+;:7cewq&OO&#O%;;;;;;;;;+OoO+%;;;;;;;",
";;;;;+OO%O+%;;;;;;;;%++$OO+%&:7Cttw;%Oo$$%+&;;;;;;;%+OoO+%;;;;;;",
";;;;;+o#5Oo+;;;;;%++%oo%%+%&:rMAnreq:%+%+o+%%%;;;;;+OO:%O+;;;;;;",
";;;;;+OOOO+%;;;;-+OO$#++;;;:0Ccrvcrw:-%%+o##O+;;;;;+OO&+O+;;;;;;",
";;;;;+OOo+%;;;;;+O##$#%&;;;40M0etMC0:;;%%%$$o++-;;;%+OoO+%;;;;;;",
";;;%++oO++;;;;;%+o=:oO%;;;;4rteeMcr:;;;;;+O#=OO+;;;;-+OoO+%;;;;;",
";;;%Oo:&o+-;;;%%&a$O++%;;;%&:reeMrq;;;;;;+O#=$#%;;;;;+O%%O+;;;;;",
";;;%OO&#o+%;;;%O#i#O+;;;;;;;;weettw;;;;;;-+Ooai&%;;;-+o==o+-;;;;",
";;;%+OoO+%;%++#oO&%+%;;;;;%&;eeeM0q;;;;;;;-++&#O+--;;+OOOO+;;;;;",
";;%+OoO+%-%+oO$#+%;;;;;;;;;40CvyMc0&;;;;;;;;%%Oo#+++;%+OOO+%;;;;",
";;+O#&OO+%+O&%O+%;;;;;;;;;;;5McMtMC:%;;;;;;;;%%%$Oo+%%%+OoO+%;;;",
";;+o#2OO+%Oo==oO%;;;;;;;;%+%;rmZCcrq;-;;;;;;;;;+O%=oO%+O%=OO+-;;",
";;%+OO$$%%#$Oo++;;;;%++%++o%;eBZlcew;+%;;;;;;;;+o%=OO%%O#=%OO+;;",
";%+O#&O#$OO#O+%;;%;-+OO+OO=,xewcZBtr%o+%%+%;;;;%+Oo$#%%$$o=&o++%",
"%+OO&=O#$OO%%%--++++OOOOoo:xnBeercmb5&o++o+%;--;%+O#OO$#O$#%&OO+",
"+oo2&oX. $$%++%+OoOOo&:oOOo=cABSemlC7=oOOOO++++%%%%%OO$OO$O#:OO+",
"%+O##$O#$O#$OO+OO&OoO+%O++O&:cretMZc#oOo%5Oo+oo+%++&$$ $$ $$oO+%",
"%+O##$O#XOO$##OOO&OO+OO+%%%%;crevcc2%O%OO#OOo&#O+OO$$#X##X##&OO%",
"&#o5& X. X$o:=oOOoO+%++%;;;;=lMtCc0;%%%%Oo+Oo:&oOOO$OOXOOXO#2##&",
"gai##$O#XO#=#OO++++-;;;;;;;;&hcyCMr;;;;%+++++oOOo&2O&=o$$ X$#afl",
"la*##$##$##&OO+-;-;;;;;;;;;;&bcNN0q;;;;;;;;;+OO+O##O#&&##&##$*il",
"f*#$$#=%o=&oO+-;;;;;;;;;;;;&:cMCtrw;&;;;;;;;%%%%+Oo+OO2##5##$#*d",
"#&2#*a#oOOO++-;;;;;;;;;;;;;40CcrCBew:;;;;;;;;;;;%++%+OoOOoi*#2=@",
"*&=*if#O+OO+;;;;;;;;;;;;;;;40ZcyCcew:-;;;;;;;;;;;;;;%+o++#aa*&&*",
"l*@dll&%%++%;;;;;;;;;;;;;;;4BlMtZBer:;;;;;;;;;;;;;;;;%+%%&glf#*j"
};
