/* XPM */
static char *bad627d33e474261d8fac5a3207b8845bV2nL1vSfUmICDSh[] = {
/* columns rows colors chars-per-pixel */
"64 64 114 2 ",
"   c #070602",
".  c #0A0201",
"X  c #0D0904",
"o  c #130603",
"O  c #1A0502",
"+  c #130B05",
"@  c #1A0C06",
"#  c #190F0A",
"$  c #171007",
"%  c #17110C",
"&  c #1D140D",
"*  c #1F190F",
"=  c #1E1710",
"-  c #240100",
";  c #3D0000",
":  c #22150E",
">  c #28100B",
",  c #241C0C",
"<  c #2D1D0D",
"1  c #34160D",
"2  c #39170E",
"3  c #3B190E",
"4  c #221810",
"5  c #351F12",
"6  c #3C1C12",
"7  c #27200A",
"8  c #2D240D",
"9  c #2F280D",
"0  c #31240E",
"q  c #342B0F",
"w  c #2F2113",
"e  c #2F2218",
"r  c #342311",
"t  c #392412",
"y  c #362D10",
"u  c #3A2D14",
"i  c #35251A",
"p  c #39251A",
"a  c #3C261B",
"s  c #3E261F",
"d  c #322819",
"f  c #3C291D",
"g  c #373010",
"h  c #383011",
"j  c #393012",
"k  c #3C3213",
"l  c #3F3314",
"z  c #3F3116",
"x  c #3F3018",
"c  c #3C3022",
"v  c #460000",
"b  c #4E0000",
"n  c #560000",
"m  c #570000",
"M  c #590000",
"N  c #401B10",
"B  c #411B10",
"V  c #421B10",
"C  c #431C10",
"Z  c #481E11",
"A  c #4A1F12",
"S  c #4E2A06",
"D  c #422F1D",
"F  c #413117",
"G  c #423517",
"H  c #423817",
"J  c #413118",
"K  c #42331A",
"L  c #43341B",
"P  c #49361E",
"I  c #47381A",
"U  c #4A391B",
"Y  c #493D19",
"T  c #4B3A1C",
"R  c #4A3C1C",
"E  c #4C3D1D",
"W  c #543311",
"Q  c #5B3712",
"!  c #412921",
"~  c #422823",
"^  c #452B24",
"/  c #492D27",
"(  c #472929",
")  c #492A2B",
"_  c #492D28",
"`  c #4B2B2C",
"'  c #4C2D2C",
"]  c #4D2D2D",
"[  c #502F2E",
"{  c #463221",
"}  c #4A3721",
"|  c #4B3523",
" . c #4C3624",
".. c #4C3821",
"X. c #4C3822",
"o. c #4D312A",
"O. c #4F322C",
"+. c #50322D",
"@. c #4B401A",
"#. c #66411C",
"$. c #823E33",
"%. c #866A4B",
"&. c #90704D",
"*. c #947653",
"=. c #977855",
"-. c #997955",
";. c #A78056",
":. c #AA875F",
">. c #AD8961",
",. c #B68B62",
"<. c #BE966A",
"1. c #C29A6D",
"2. c #C6A279",
"3. c #DAC4B5",
/* pixels */
"` p r ) ] / u y y q y h h h h h h h h h h h h h h h h z T Y X.O.E  .] X.G h h h h h h h h h h h h h h h y q q g y u ] ` ( w p ` ",
"p u u a ^ ^ r q q 8 q g h h h h h h h h h h h h h h g z U Y } o.R } O.P G h h h h h h h h h h h h h h h q 0 0 q 0 r ) ~ p u u p ",
"w u F r s ~ 8 0 0 8 0 q y q q y h h h h h h h h h h h z U Y X.o.L D ^ P G h h h h h h h h h h h h h y q q 0 0 q 0 r ^ p r F u r ",
"( p r t r r J r r F 0 0 q 8 0 q y y y y h h h h h h h u k U T x # + # r 0 y h h h h h h h h h h h y q 0 8 u z 8 y F r t t r s ) ",
"] ~ p t r r u r r u y r 0 r r 0 q 0 0 q h h h h h h h h u z u & 3 V 3 # # 8 0 y h h h h h h y h y q 0 0 u u r t r r t r r s ^ ] ",
"] ) ^ r t t < t t 8 u u 0 F u 8 0 0 8 q q q q q y h y 0 8 # @ 3 Z Z Z V 3 # # 8 y h h h y q q q q 0 0 r z r 0 t r 0 t r r ~ ^ _ ",
"u r r F r 0 5 0 0 5 0 0 t 0 0 0 8 u z 8 0 0 8 0 y q 8 # # 3 V Z Z Z Z Z Z V 3 $ 8 0 q y q 0 8 0 0 8 u z 8 t 5 < 5 5 < u J 8 y u ",
"y 0 9 u r r 5 r r t r r t 0 0 q 0 r u 0 0 0 r 0 0 8 @ 3 V Z Z Z Z Z Z Z Z Z Z 3 # + 7 q 0 0 u 0 0 0 r r t 0 0 5 r 0 t r r 0 q y ",
"y q 0 8 t t < 5 5 < 5 t u q q y q 8 8 0 8 0 J y 7 + 3 Z Z V V V V V V Z Z Z Z Z V 3 @ 7 8 0 u 0 0 q 0 0 t r 0 5 r 0 t r r 0 q y ",
"q 0 0 u r 0 5 0 0 t 0 0 y y y y y q q q q 0 0 0 7 + V V 3 O o o o o O 3 V Z Z Z Z Z 3 # 8 0 8 0 q y q q y t t < 5 5 8 u F 8 8 q ",
"q 0 0 u u r t 0 t t 0 0 r 0 q y h y y h y q 8 8 # 1 2 O O v b b b b v O O 3 V Z Z Z Z 3 $ 8 0 q g g y y y 0 0 t r 0 u y 0 0 q y ",
"g q q 8 u z 8 t t y y r t 8 0 q y h h h h y 0 + O o O v b m M M M M m b v O O 3 Z Z V C 3 # 0 h h y q 0 r 0 0 t t 0 u r 0 q g h ",
"h h q 0 0 r F r 0 y y 0 0 z y 8 q h h h h h 0   o v b m m b b b b b b b m b v - 3 3 @ 3 3 # 0 h q q 8 0 t r y u t t 0 0 q y h h ",
"h h g q 0 0 u r 0 q y 0 8 u y 0 q h h h h y 8 O v m m b v > : : : : : > v b m v O X 8 # # 8 g g q 8 u u 8 0 y q 0 0 F r 8 q h h ",
"h h h g q 0 8 0 q y y y q 8 0 t r y g h h 0 + v m m v > i -.:.:.:.:.:.-.i > v m v o 0 0 0 g h y q 0 y u 0 q y q 0 0 u q 0 q h h ",
"h h h h y q 0 0 0 q y h q q q r 8 0 y g h 0 o b m v 6 -.>.<.1.1.1.1.1.<.>.-.6 v b o 0 h h h y q r t 0 8 q y y y q 0 8 0 q y h h ",
"h h h h h q 0 0 0 0 q h h y y q 0 r u q q 0 + v v t -.<.1.1.1.1.1.1.1.1.1.<.-.> ; + 0 y q y u 0 8 r q q y h y q 0 8 0 q y h h h ",
"h h h h g q 8 u u 8 q y h h h y u ~ ^ 8 0 q 8 + : -.1.2.,.,.2.1.1.2.,.,.2.1.:.& + 8 y q 0 r ~ r 0 y h h h g q 8 r u 0 0 y h h h ",
"h h h h h q 0 y y 0 q h h h h h y r t u r 0 q 8 * :.2.3.$.$.3.2.2.3.$.$.3.2.:.* 8 q q q 0 t ^ u y y h h h g q 8 u z 8 0 y h h h ",
"h h h h h g q 0 8 0 q y h h h h q 0 0 z r 0 q 0 * :.1.2.,.,.2.1.1.2.,.,.2.1.:.* 0 y 0 8 u u 8 q y h h h h h q 0 0 8 q q y h h h ",
"h h h h h h y q 0 8 0 q y h h h g q q 8 t t y 9 * :.1.1.1.1.1.1.1.1.1.1.1.1.:.* 0 y r t r r 0 q h h h h h y q 8 0 0 q h h h h h ",
"h h h h h h q 0 q u 0 0 q h h h h h q 0 r r 8 9 , -.<.1.1.1.1.1.1.1.1.1.1.<.-., 0 q r t 0 0 q g h h h h y q 0 0 0 0 q h h h h h ",
"h h h h h h q 0 y z 0 0 q h h h h h g y y q 8 0 8 d -.<.1.1.1.1.1.1.1.1.<.-.d 8 q 8 8 y q q g h h h h h q 8 0 J r 8 q h h h h h ",
"h h h h h h g q 0 8 0 q y h h h h h h h u q y t t , d -.>.<.,.,.,.,.<.>.-.d 8 0 t q q y h h h h h h h h y q 0 y 0 0 q h h h h h ",
"h h h h h h h y q 0 8 0 q h h h h h h h h h y 0 8 r , * c &.#.Q Q #.&.c * , 8 8 t r y y h h h h h h h h y q 0 8 0 q y h h h h h ",
"h h h h h h h y q 0 8 0 q y h h h h h h h y 0 , + + X % %.{ W S S W { %.% X + # , 8 y h h h h h h h h y q 8 8 0 y y h h h h h h ",
"h h h h h h h y 0 8 x u 8 q h h g h y h 0 8 # + 3 V 3 : *.:.;.#.#.;.:.*.: 3 V 3 + # 8 0 y h h h h h y y 8 u u 8 0 y h h h h g u ",
"G G G u h h h y u u { D y y h G h h u r # # 3 V Z Z Z 6 i -.<.,.,.<.-.i 6 Z Z Z V 3 # # 8 y h h h y k k y J L r y y h h h z z z ",
"X.P P z u u u h z } o.{ h h J P k h 0 & 3 V Z Z Z Z Z Z 6 i -.:.:.-.i 6 Z Z Z Z Z Z V 3 $ 8 u h u z I U T } o.} F h h h k U U T ",
"[ O.o.} } ] ] } } +.X.Y Y T  .o.Y G $ 3 Z Z Z Z Z Z Z Z Z 6 : : : : 6 Z Z Z Z Z Z S Z Z 3 $ J I P o.T Y E } ] +.} T T I U Y Y Y ",
" .} }  .} }  .T T X.Y U X.} }  .Y h @ V Z Z Z C Z Z Z Z Z Z V V V V Z Z Z Z Z Z V Z Z Z V @ z P }  .} } X.}  . .}  . .P T X.} X.",
"E R T o.} R E Y Y @.Y } O.O. .R H $ 3 Z Z Z V @ V Z Z Z Z Z Z Z Z Z Z Z Z Z Z V @ V Z Z Z 3 $ ~  .E o.] O.T Y E  .o.o.X.E o.o.O.",
"O.o.o.E X.o.o. .E Y T O.] o.E  .~ + V Z Z Z 3 o V Z Z Z Z Z Z Z Z Z Z Z Z Z Z V o 3 Z Z Z V + G R  .O.O.} Y @.Y Y E R } o.T R E ",
"X.} X.T T  . .}  .} } X.} }  .} L + V Z Z V o   V Z Z Z Z Z Z Z Z Z Z Z Z Z Z V   o V Z Z V + G  .} } X.U Y X.T T  .} }  .} }  .",
"Y Y Y U I T P } O.] } E Y T o.P z + V Z S V     V Z Z Z Z Z Z Z Z Z S Z Z Z Z V     V Z Z V + L o. .T Y Y X.+.} } ] ] } } o.O.[ ",
"T U U k h h h F } o.} T U I z u 0 + V Z S V     V Z Z Z Z Z Z Z Z Z Z Z Z Z Z V     V Z Z V + y P J h h { o.} z h u u u z P P X.",
"z z z u h h y y r L J y k k y h 0 + 3 V V 2 .   V Z Z Z Z Z Z Z Z Z Z Z Z Z Z V     3 V V 3 + 0 G h y y D { u u y h h h u G G G ",
"u y u h h h q 0 8 u u 8 y y h h 0 X 1 : : : % X V Z Z Z Z Z Z Z Z Z Z Z Z Z Z V X % : , : 1 X 0 h h q 8 u x 8 0 y h h h h h h h ",
"h h h h h h y y 0 8 8 q y h h h 0 X e -.:.:.=.e 6 Z Z Z Z Z Z Z Z Z Z Z Z Z Z 6 e =.:.:.-.e X 0 h h y q 0 8 0 q y h h h h h h h ",
"h h h h h y q 0 8 0 q y h h h h 0 * %.<.1.1.<.-.: 3 V V V V V V V V V V V V 3 : -.<.1.1.<.%.* 0 h h h q 0 8 0 q y h h h h h h h ",
"h h h h h q 0 0 y 0 q y h h h h g 0 d -.<.1.<.-.* o + + + + + + + + + + + + o * -.<.1.<.-.d 0 y h h h y q 0 8 0 q y h h h h h h ",
"h h h h h q 8 r J 0 8 q h h h h h y 8 d -.:.=.e 3 V V V V V V V V V V V V V V 6 e =.:.-.d 8 y h h h h q 0 0 z y 0 q h h h h h h ",
"h h h h h q 0 0 0 0 q y h h h h g q 8 < 4 * & X V Z Z Z Z Z Z Z Z Z Z Z Z Z Z V X & * , 8 q h h h h h q 0 0 u q 0 q h h h h h h ",
"h h h h h q 0 0 8 q y h h h h h q 0 r r < 8 8 X V Z Z Z Z Z Z Z Z Z Z Z Z Z Z V X 8 5 < 8 q q y h h h y q 0 8 0 q y h h h h h h ",
"h h h y q q 8 0 q q h h h h h y q 8 u z 8 0 0 + V Z Z Z Z Z Z Z Z Z Z Z Z Z Z V + 9 0 r u 0 0 q h h h h g q 0 8 0 q y h h h h h ",
"h h h y 0 8 z u 8 q g h h h y y u ^ t 0 q q 0 + V Z Z Z Z Z Z V V Z Z Z Z Z Z V + 9 0 r u t r y h h h h h q 0 y y 0 q h h h h h ",
"h h h y q 0 u r 8 q y h h h y 0 r ~ r 0 q h 0 + V Z Z Z Z Z 3 @ @ 3 Z Z Z Z S V + 0 q 0 8 ^ ~ u u h h h g q 8 u u 8 q g h h h h ",
"h h h y q 0 8 0 q y h y q q r 8 0 u y q g h 0 + V Z Z Z Z V @ h f @ V Z Z S S V + 0 g q q u r 0 q g g h h q 0 0 0 0 q h h h h h ",
"h h y q 0 8 0 q y g y q 8 0 t r q y h h h h 0 X 2 V V V V 2 + L ~ + 2 V V V V 2 X 0 h h y y 0 8 r q q q h y q 0 0 0 q g h h h h ",
"h h q 0 r u 0 0 q y q 0 u y 0 q y h h h h h 0 X * : : : : * X D I X * : : : : * X 0 h h h g y y t 0 8 q y y y q 0 8 0 q g h h h ",
"h h q 8 r F 0 0 q y 0 8 u u 8 0 y h h h h h 0 * *.:.:.:.:.*.= ^ ^ = *.:.:.:.:.*.* 0 h h h h h q 0 y u 0 0 y q 0 y u 0 0 q g h h ",
"h h y q 0 0 t t u y r t 0 8 q q h h h h y q 9 * :.1.<.>.:.*.= ( ^ = *.:.>.<.1.:.* 0 h h h h h q 8 y z 0 0 y y 0 r u r 0 0 q h h ",
"h y q 0 r u 0 r t 0 0 r 0 q y h h y h y q 0 8 * *.:.-.i : & X L ^ X & : i -.:.*.* 9 y h h h h y q 0 8 t r y u t t 8 u u 8 q q y ",
"y q 0 0 u u 0 r t 0 0 y y y g g q q q q 0 8 , + : : > v b v + G J o v b v > : : o , 9 q h y y h y q 0 r 0 0 t r 0 t r y u 0 0 q ",
"q 8 8 F u 8 5 5 < t t y q q y q 0 8 0 8 , + O ; b b b m M b o H G o b M m b b b ; o + 8 0 q q y y y y y 0 0 t 0 0 t 0 r z 0 0 q ",
"y q 0 r r t 0 r t 0 r t 0 0 q 0 0 u 8 + o ; v - v m M M M b o G L o b M M M m v - v ; o + , 8 q y q q u t t < t t < t t 8 q q y ",
"y q 0 r r t 0 r 5 0 0 t r r 0 0 0 r O v v - b v - m M M M b o G D o b M M M m - v b - v v O 8 0 q 0 0 t r r 5 r r 5 r r u 0 0 y ",
"u r 8 J u < 5 5 < 5 t 8 z u 8 0 7 O v m m m m m m m M M M b o L ^ o b M M M m m m m m m m v O , 0 0 0 t 0 0 5 0 0 5 0 r F r r u ",
"_ ^ ~ r r t 0 r 5 0 r u r 0 0 0 + ; b b b b b b b b b b b v o L ^ o v b b b b b b b b b b b ; + 7 u F 0 u u 8 t t < t t r ^ ) ] ",
"] ^ s r r t r r t r y u 0 0 q 0 X . . . . . . . . . . . . . + L L + . . . . . . . . . . . . . X 8 r r 0 r u u r r u t r t p ~ ] ",
") s r t t r u y 8 u u 8 0 q g g 8 X                       + f o.T u +                       X 8 q 0 8 q 0 0 F r r J r r t r p ( ",
"r u F r p ^ r 8 0 0 0 q q g h h y 0 0 0 0 0 0 0 0 0 0 u J ^ } T o.} G F y 0 0 0 0 0 0 0 0 0 0 g y q q y q 0 8 0 0 8 ~ s r F u w ",
"p u u p ~ ) r 0 q 0 0 q h h h h h h h h h h h h h h h G P O.} R o.} Y U z g h h h h h h h h h h h h h h y q 9 q q r ^ ^ a u u p ",
"` p w ( ] ] u y y q q y h h h h h h h h h h h h h h h G X.]  .E O.X.Y T z h h h h h h h h h h h h h h h h y q y y u _ ] ) r p ` "
};
