/* XPM */
static char *ed9abe29739247ddec10fe9ba7c9929d3LzcXa7eKSs5f7VW[] = {
/* columns rows colors chars-per-pixel */
"64 64 4 1 ",
"  c #12001C",
". c #200B2B",
"X c #24172B",
"o c #382642",
/* pixels */
"XXXXXXXXXXX.  .......XXXXXXX..                ..XXXXXXXXXXXXXXXX",
"XXXXXXXXXXX.  .......XXXXXXX..                ..XXXXXXXXXXXXXXXX",
"XXXXXXX....          .......    oooooooooooooo  ..XXXXXXXXXXXXXX",
"XXXXXXX....          .......    oooooooooooooo  ..XXXXXXXXXXXXXX",
"XXXXXXX.... ooooooooo         ooXXXXXXXXXXXXXXoo  ..XXXXXXXXXXXX",
".......    oXXXXXXXXXoooooo.  .......XXXXXXXXXXXoo  .XXXXXXX....",
".......    oXXXXXXXXXoooooo.  .......XXXXXXXXXXXoo  .XXXXXXX....",
"           .......XXXXX....          ..XXXXXXXXXXX  ........    ",
"           .......XXXXX....          ..XXXXXXXXXXX  ........    ",
"           .......XXXXX....          ..XXXXXXXXXXX  ........    ",
"           .......XXXXX....          ..XXXXXXXXXXX  ........    ",
"ooooo..           ..X       oooooooo   ....XXXXXXX            oo",
"XXXX.       oooo  .. ..oooooXXXXXXXXo      .......  ooooooooooXX",
"XXXX.       oooo  .. ..oooooXXXXXXXXo      .......  ooooooooooXX",
"XX..   oooooXXXXoo   ooXXXXXXXXXXXXXXoo              ..XXXXXXXXX",
"XX..   oooooXXXXoo   ooXXXXXXXXXXXXXXoo              ..XXXXXXXXX",
"..   ooXXXXXXXXXXXoo   XXXXXXXXXXXXXXXX    oooooooooo  ....XXXXX",
"..   ooXXXXXXXXXXXoo   XXXXXXXXXXXXXXXX    oooooooooo  ....XXXXX",
"    oXXXXXXXXXXXXXXXo  .......XXXXXXXXX    oXXXXXXXXXoo    .XXXX",
"    oXXXXXXXXXXXXXXXo  .......XXXXXXXXX    oXXXXXXXXXoo    .XXXX",
"oo  oXXXXXXXXXXXXXXXX         ..XXXXXXX     ooXXXXXXXXXoooo ....",
"oo   XXXXXXXXXXXXXXXX  ooooo    ..XXXXX     ooXXXXXXXXXXXXX     ",
"oo   XXXXXXXXXXXXXXXX  ooooo    ..XXXXX     ooXXXXXXXXXXXXX     ",
"oo..   XXXXXXXXXXXXXX  XXXXXoooo  ..XXX    o  ..XXXXXXX     ooXX",
"oo..   XXXXXXXXXXXXXX  XXXXXoooo  ..XXX    o  ..XXXXXXX     ooXX",
"oo..   XXXXXXXXXXXXXX  XXXXXoooo  ..XXX    o  ..XXXXXXX     ooXX",
"oo..   XXXXXXXXXXXXXX  XXXXXoooo  ..XXX    o  ..XXXXXXX     ooXX",
"oo  o  XXXXXXXXXXXXXX  XXXXXXXoo    ...    o    XXXXXXX    oXXXX",
"..  X  XXXXXXXXXXXXX.  XXXXXXXXXoo     ooooXoo  XXXXXXX    XXXXX",
"..  X  XXXXXXXXXXXXX.  XXXXXXXXXoo     ooooXoo  XXXXXXX    XXXXX",
"    X  .....XXXXXXXX   XXXXXXXXXXX   ooXXXXXXX  XXXXX..    .XXXX",
"    X  .....XXXXXXXX   XXXXXXXXXXX   ooXXXXXXX  XXXXX..    .XXXX",
"  ooXXX     ........ XXXXXXXXXXXXX  oXXXXXXXXX  ..XX.  ....XXXoo",
"  ooXXX     ........ XXXXXXXXXXXXX  oXXXXXXXXX  ..XX.  ....XXXoo",
"  XXXXXooooo         XXXXXXXXXXX..  oXXXXXXXXX    .. .......XXoo",
"  XXXXXooooo         XXXXXXXXXXX..  oXXXXXXXXX    .. .......XXoo",
"  XXXXXXXXXXoo  XXXXXXXXXXXXXX..    oXXXXXXXXX      .       ....",
"    XXXXXXXXXX  ..XXXXX.......    ooXXXXXXXX..  oo   ooooooo    ",
"    XXXXXXXXXX  ..XXXXX.......    ooXXXXXXXX..  oo   ooooooo    ",
"oo  XXXXXXXXXX    .....         ooXXX.......    XXoo XXXXXXXoo  ",
"oo  XXXXXXXXXX    .....         ooXXX.......    XXoo XXXXXXXoo  ",
"oo  XXXXXXXXXX    .....         ooXXX.......    XXoo XXXXXXXoo  ",
"oo  XXXXXXXXXX    .....         ooXXX.......    XXoo XXXXXXXoo  ",
"oo  .XXXXXXXXXXX..     ooooooo  .....       ooooXXXX XXXXXXXXXoo",
"..oo ......XXX..  oooooXXXXXoo         oooooXXXXXXXX XXXXXXXXXXX",
"..oo ......XXX..  oooooXXXXXoo         oooooXXXXXXXX XXXXXXXXXXX",
"....o      ...    XXXXXXXXXXXXooooooo  ooooXXXXXXXXX       XXXXX",
"....o      ...    XXXXXXXXXXXXooooooo  ooooXXXXXXXXX       XXXXX",
".....oo       oo    XXXXXXXXXXXXXXXX.  XXXXXXXXXXX.. oooooo XXXX",
".....oo       oo    XXXXXXXXXXXXXXXX.  XXXXXXXXXXX.. oooooo XXXX",
".....  oooooooXXoo  ...XXXXXXXXXXX..   XXXXXXXXX..   ooXXXXo  XX",
".....  oooooooXXoo  ...XXXXXXXXXXX..   XXXXXXXXX..   ooXXXXo  XX",
".....  XXXXXXXXXXXXX   ...........   XXXXXXXXX..    oXXXXXXXoo  ",
"           .XXXXXXXXX               XXXXXXXX..    ooXXXXXXX.  oo",
"           .XXXXXXXXX               XXXXXXXX..    ooXXXXXXX.  oo",
"ooooooo     ....XXXX...       oo    ........    ooXXXXX.... ooXX",
"ooooooo     ....XXXX...       oo    ........    ooXXXXX.... ooXX",
"ooooooo     ....XXXX...       oo    ........    ooXXXXX.... ooXX",
"ooooooo     ....XXXX...       oo    ........    ooXXXXX.... ooXX",
".......oooo     ....        oo..oo            ooXXXXX..    oXXXX",
"...........ooo       ...... ........   XXXXXXXXXXXXX.  ooooXXXXX",
"...........ooo       ...... ........   XXXXXXXXXXXXX.  ooooXXXXX",
".....  .................... .........      XXXXXXXXX XXXXXXXXXXX",
".....  .................... .........      XXXXXXXXX XXXXXXXXXXX"
};
